<svg width="64" height="64" viewBox="0 0 64 64" fill="none" xmlns="http://www.w3.org/2000/svg">
<g clip-path="url(#clip0_174_1161)">
<path d="M41.636 8.404L42.653 15.641L60.232 20.351C61.4768 20.6845 62.5448 21.4858 63.2131 22.5877C63.8814 23.6896 64.0985 25.007 63.819 26.265L63.768 26.475L57.038 51.589C56.7882 52.5212 56.274 53.3612 55.5576 54.0078C54.8411 54.6544 53.9528 55.0799 53 55.233V56C52.9999 57.2885 52.5024 58.5272 51.6113 59.4578C50.7202 60.3884 49.5042 60.9391 48.217 60.995L48 61H16C14.7115 60.9999 13.4728 60.5025 12.5422 59.6113C11.6116 58.7202 11.0609 57.5042 11.005 56.217L11 56V44.013L9.30997 44.252C8.03395 44.4312 6.73799 44.1109 5.69241 43.3578C4.64682 42.6047 3.93234 41.4771 3.69797 40.21L3.66397 39.996L0.0449745 14.25C-0.134264 12.9741 0.185937 11.6783 0.938807 10.6327C1.69168 9.58717 2.8191 8.87259 4.08597 8.638L4.30097 8.603L35.989 4.149C36.6392 4.05765 37.3011 4.09528 37.9368 4.25972C38.5725 4.42417 39.1696 4.71222 39.6939 5.10743C40.2183 5.50264 40.6597 5.99727 40.9929 6.56307C41.3261 7.12886 41.5447 7.75376 41.636 8.404ZM21.146 47.777L21.006 47.908L13 55.914V56C12.9999 56.7652 13.2923 57.5015 13.8173 58.0583C14.3422 58.615 15.0601 58.9501 15.824 58.995L16 59H37.42L25.149 47.812C24.603 47.3141 23.8925 47.0352 23.1537 47.0287C22.4148 47.0223 21.7005 47.2887 21.146 47.777ZM37.647 37.874L37.508 38.01L28.091 47.788L40.387 59H48C48.7652 59 49.5015 58.7077 50.0582 58.1827C50.615 57.6578 50.9501 56.9399 50.995 56.176L51 56V46.439L41.7 37.883C41.1479 37.375 40.4255 37.0922 39.6752 37.0906C38.925 37.0889 38.2013 37.3684 37.647 37.874ZM53 34.614V53.19C53.4757 53.0596 53.9119 52.814 54.2701 52.4749C54.6284 52.1359 54.8976 51.7138 55.054 51.246L55.106 51.072L57.581 41.837L53 34.614ZM48 27H31.991C31.708 27.031 31.42 27.032 31.129 27H16C15.2348 27 14.4985 27.2923 13.9417 27.8173C13.385 28.3422 13.0499 29.0601 13.005 29.824L13 30V53.084L19.592 46.494C20.4719 45.614 21.6484 45.0937 22.8915 45.0349C24.1346 44.9761 25.3549 45.383 26.314 46.176L26.496 46.335L26.613 46.44L36.068 36.623C36.9446 35.7125 38.1334 35.1678 39.3954 35.0984C40.6574 35.029 41.8988 35.4401 42.87 36.249L43.054 36.411L51 43.721V30C51 29.2348 50.7076 28.4985 50.1827 27.9417C49.6577 27.385 48.9399 27.0499 48.176 27.005L48 27ZM11 32.548L5.63697 39.666L5.64397 39.718C5.75478 40.5058 6.17395 41.2173 6.80931 41.6961C7.44466 42.1748 8.24416 42.3816 9.03197 42.271L11 41.994V32.548ZM25.18 15.954L25.13 16.123L22.75 24.999H28.086C27.7401 24.3906 27.56 23.702 27.5635 23.0022C27.5671 22.3023 27.7542 21.6156 28.1061 21.0107C28.4581 20.4058 28.9626 19.9038 29.5693 19.5549C30.176 19.206 30.8636 19.0224 31.5635 19.0224C32.2633 19.0224 32.951 19.206 33.5576 19.5549C34.1643 19.9038 34.6688 20.4058 35.0208 21.0107C35.3728 21.6156 35.5599 22.3023 35.5634 23.0022C35.567 23.702 35.3868 24.3906 35.041 24.999L48 25.001C49.2884 25.0011 50.5271 25.4985 51.4578 26.3897C52.3884 27.2808 52.9391 28.4968 52.995 29.784L53 30V30.88L58.284 39.211L61.836 25.958C62.0341 25.2188 61.9422 24.4318 61.5792 23.7582C61.2161 23.0845 60.6093 22.575 59.883 22.334L59.714 22.284L28.804 14C28.0649 13.8022 27.2782 13.8942 26.6047 14.2572C25.9313 14.6203 25.422 15.2269 25.181 15.953L25.18 15.954ZM21 31C22.0608 31 23.0783 31.4214 23.8284 32.1716C24.5785 32.9217 25 33.9391 25 35C25 36.0609 24.5785 37.0783 23.8284 37.8284C23.0783 38.5786 22.0608 39 21 39C19.9391 39 18.9217 38.5786 18.1715 37.8284C17.4214 37.0783 17 36.0609 17 35C17 33.9391 17.4214 32.9217 18.1715 32.1716C18.9217 31.4214 19.9391 31 21 31ZM21 33C20.4695 33 19.9608 33.2107 19.5858 33.5858C19.2107 33.9609 19 34.4696 19 35C19 35.5304 19.2107 36.0391 19.5858 36.4142C19.9608 36.7893 20.4695 37 21 37C21.5304 37 22.0391 36.7893 22.4142 36.4142C22.7893 36.0391 23 35.5304 23 35C23 34.4696 22.7893 33.9609 22.4142 33.5858C22.0391 33.2107 21.5304 33 21 33ZM36.443 6.11L36.268 6.129L4.57797 10.582C3.82023 10.6887 3.13189 11.0808 2.65377 11.6783C2.17566 12.2757 1.94392 13.0333 2.00597 13.796L2.02597 13.971L5.24297 36.865L11.076 29.125C11.2754 28.0055 11.8503 26.9874 12.706 26.2384C13.5616 25.4895 14.6469 25.0544 15.783 25.005L16 25H20.68L23.199 15.605C23.5325 14.3604 24.3336 13.2926 25.4353 12.6243C26.5369 11.956 27.8541 11.7388 29.112 12.018L29.322 12.069L40.554 15.079L39.656 8.682C39.5496 7.92426 39.1576 7.23582 38.5604 6.75753C37.9631 6.27924 37.2057 6.04824 36.443 6.11ZM29.632 22.505C29.559 22.7774 29.5445 23.0622 29.5894 23.3407C29.6343 23.6191 29.7375 23.885 29.8924 24.1207C30.0473 24.3564 30.2503 24.5567 30.488 24.7084C30.7258 24.8601 30.993 24.9598 31.272 25.001H31.865C32.2212 24.9467 32.5562 24.7971 32.8345 24.5681C33.1127 24.339 33.3239 24.0391 33.4458 23.6999C33.5676 23.3607 33.5955 22.9949 33.5266 22.6412C33.4576 22.2875 33.2943 21.9589 33.0541 21.6904C32.8138 21.4218 32.5054 21.2231 32.1615 21.1153C31.8176 21.0076 31.4509 20.9948 31.1003 21.0782C30.7497 21.1617 30.4282 21.3383 30.1697 21.5895C29.9113 21.8406 29.7255 22.1569 29.632 22.505ZM9.99997 13C11.0608 13 12.0783 13.4214 12.8284 14.1716C13.5785 14.9217 14 15.9391 14 17C14 18.0609 13.5785 19.0783 12.8284 19.8284C12.0783 20.5786 11.0608 21 9.99997 21C8.93911 21 7.92169 20.5786 7.17155 19.8284C6.4214 19.0783 5.99997 18.0609 5.99997 17C5.99997 15.9391 6.4214 14.9217 7.17155 14.1716C7.92169 13.4214 8.93911 13 9.99997 13ZM9.99997 15C9.46954 15 8.96083 15.2107 8.58576 15.5858C8.21069 15.9609 7.99997 16.4696 7.99997 17C7.99997 17.5304 8.21069 18.0391 8.58576 18.4142C8.96083 18.7893 9.46954 19 9.99997 19C10.5304 19 11.0391 18.7893 11.4142 18.4142C11.7893 18.0391 12 17.5304 12 17C12 16.4696 11.7893 15.9609 11.4142 15.5858C11.0391 15.2107 10.5304 15 9.99997 15Z" fill="#222222"/>
</g>
<defs>
<clipPath id="clip0_174_1161">
<rect width="64" height="64" fill="white"/>
</clipPath>
</defs>
</svg>
